<?xml version="1.0" encoding="UTF-8" standalone="no"?>
<!-- Created with Inkscape (http://www.inkscape.org/) -->

<svg
   xmlns:dc="http://purl.org/dc/elements/1.1/"
   xmlns:cc="http://creativecommons.org/ns#"
   xmlns:rdf="http://www.w3.org/1999/02/22-rdf-syntax-ns#"
   xmlns:svg="http://www.w3.org/2000/svg"
   xmlns="http://www.w3.org/2000/svg"
   xmlns:sodipodi="http://sodipodi.sourceforge.net/DTD/sodipodi-0.dtd"
   xmlns:inkscape="http://www.inkscape.org/namespaces/inkscape"
   width="450"
   height="120"
   viewBox="0 0 119.0625 31.750003"
   version="1.1"
   id="svg8"
   style="enable-background:new"
   inkscape:version="0.92.5 (2060ec1f9f, 2020-04-08)"
   sodipodi:docname="Logo_jaf.svg">
  <defs
     id="defs2">
    <filter
       inkscape:collect="always"
       style="color-interpolation-filters:sRGB"
       id="filter904">
      <feBlend
         inkscape:collect="always"
         mode="overlay"
         in2="BackgroundImage"
         id="feBlend906" />
    </filter>
  </defs>
  <sodipodi:namedview
     id="base"
     pagecolor="#ffffff"
     bordercolor="#666666"
     borderopacity="1.0"
     inkscape:pageopacity="0.0"
     inkscape:pageshadow="2"
     inkscape:zoom="0.98994949"
     inkscape:cx="371.33408"
     inkscape:cy="166.83006"
     inkscape:document-units="px"
     inkscape:current-layer="g911"
     showgrid="true"
     units="px"
     inkscape:window-width="1872"
     inkscape:window-height="1016"
     inkscape:window-x="1968"
     inkscape:window-y="27"
     inkscape:window-maximized="1">
    <inkscape:grid
       type="xygrid"
       id="grid881" />
  </sodipodi:namedview>
  <metadata
     id="metadata5">
    <rdf:RDF>
      <cc:Work
         rdf:about="">
        <dc:format>image/svg+xml</dc:format>
        <dc:type
           rdf:resource="http://purl.org/dc/dcmitype/StillImage" />
        <dc:title></dc:title>
      </cc:Work>
    </rdf:RDF>
  </metadata>
  <g
     inkscape:groupmode="layer"
     id="layer2"
     inkscape:label="Calque 2"
     style="filter:url(#filter904)"
     transform="translate(0,-265.24998)">
    <g
       id="g911">
      <path
         inkscape:connector-curvature="0"
         id="path886"
         d="M 9.6173309,295.99856 8.294414,277.47772 112.80483,266.89439 l 1.32292,18.52083 z"
         style="fill:#c8b15d;fill-opacity:1;stroke:none;stroke-width:0.26458332px;stroke-linecap:butt;stroke-linejoin:miter;stroke-opacity:1" />
      <g
         aria-label="JUST à FAIRE"
         transform="rotate(-5.9550922,1327.4296,524.64667)"
         style="font-style:normal;font-variant:normal;font-weight:normal;font-stretch:normal;font-size:17.97398376px;line-height:1.25;font-family:Selima;-inkscape-font-specification:Selima;letter-spacing:0px;word-spacing:0px;fill:#000000;fill-opacity:1;stroke:none;stroke-width:0.44934958"
         id="text879">
        <path
           d="m 48.46889,158.29476 c 0.125818,0.14379 0.215687,0.17974 0.341505,0.10784 0.03595,-0.018 0.0719,-0.036 0.107844,-0.0719 0.125818,-0.10785 0.251636,-0.21569 0.377454,-0.30556 0.05392,-0.0539 0.107844,-0.0899 0.161766,-0.12582 0.233662,-0.21569 0.467323,-0.43137 0.718959,-0.62909 0.03595,-0.036 0.0719,-0.0719 0.125818,-0.0899 0.215688,-0.0719 0.341506,-0.23366 0.467324,-0.39543 0.215687,-0.26961 0.395427,-0.57516 0.431375,-0.93464 0,-0.0539 0.01797,-0.10785 0.03595,-0.16177 0.143792,-0.46732 0.287584,-0.93465 0.413402,-1.40197 l 0.143792,-0.53922 c 0.179739,-0.4853 0.377453,-0.95262 0.521245,-1.43792 0.01797,-0.0539 0,-0.12582 0.03595,-0.17974 0.143792,-0.26961 0.143792,-0.55719 0.215688,-0.8268 0.03595,-0.14379 0.0719,-0.26961 0.0719,-0.4134 0,-0.26961 -0.01797,-0.5572 -0.03595,-0.84478 0,-0.32353 -0.01797,-0.64706 -0.01797,-0.95262 0,-0.0539 0.01797,-0.0899 0.01797,-0.14379 0,-0.0719 0.05392,-0.10785 0.125818,-0.10785 0.197714,-0.018 0.395427,-0.018 0.593141,-0.018 0.125818,0 0.26961,0.018 0.377454,-0.018 0.683011,-0.30556 0.916673,-0.66504 0.934647,-1.33008 0,-0.28758 -0.03595,-0.55719 -0.0719,-0.8268 0,-0.0359 -0.03595,-0.0719 -0.0719,-0.10785 -0.107844,0.12582 -0.215688,0.10785 -0.341506,0.10785 -0.161765,0 -0.305557,-0.018 -0.449349,0 -0.35948,0.018 -0.700985,0.0539 -1.060465,0.0899 -0.431376,0.0359 -0.844777,0.0899 -1.276153,0.0539 -0.17974,-0.018 -0.341506,-0.018 -0.521246,-0.018 -0.557193,0 -1.114387,0.0899 -1.67158,0.21568 -0.17974,0.0539 -0.341506,0.16177 -0.503272,0.25164 -0.125817,0.0719 -0.143791,0.12582 -0.0719,0.23366 0.05392,0.10784 0.05392,0.17974 0,0.26961 0.08987,0.23366 0.287583,0.34151 0.449349,0.4853 0.0719,0.0719 0.161766,0.16176 0.26961,0.19771 0.233662,0.0539 0.395427,0.23366 0.575167,0.35948 0.161766,0.12582 0.323532,0.23366 0.521246,0.30556 l 0.125818,0.0719 c 0.107844,0.0539 0.107844,0.10784 0.08987,0.21568 -0.125818,0.39543 -0.233662,0.77288 -0.341506,1.16831 l -0.629089,2.26472 c -0.01797,0.10785 -0.05392,0.19772 -0.08987,0.30556 -0.17974,0.59314 -0.395428,1.18628 -0.575168,1.77943 -0.341506,2.17485 -1.348049,4.00819 -1.473867,0.55719 l 0.05392,-0.46732 c 0,-0.018 0,-0.0359 0.01797,-0.0719 0.08987,-0.17974 0.107844,-0.37745 0.05392,-0.57517 v -0.018 c 0,-0.21569 -0.05392,-0.43138 -0.197713,-0.61112 -0.305558,-0.018 -0.593142,-0.0359 -0.8987,0.14379 0.03595,0.12582 0.0719,0.25164 0.125818,0.37746 l 0.05392,0.19771 c 0.03595,0.26961 0.0719,0.52125 0.08987,0.79086 0.03595,0.3415 0.05392,0.68301 0.0719,1.02451 0.01797,0.43138 0.107844,0.84478 0.251636,1.25818 0.08987,0.23367 0.251636,0.43138 0.449349,0.59315 0.125818,0.10784 0.287584,0.12581 0.44935,0.17973 0.143792,0.0539 0.287584,0.0899 0.431376,0.018 z"
           style="fill:#000000;stroke-width:0.44934958"
           id="path913"
           inkscape:connector-curvature="0" />
        <path
           d="m 59.307167,153.94505 c -0.557193,0.50328 -3.451004,3.63075 -2.624201,1.24021 0.17974,-0.4853 0.413401,-0.9706 0.485297,-1.43792 0.03595,-0.16176 0.08987,-0.3415 0.143792,-0.50327 0.143792,-0.52125 0.323532,-1.02452 0.467324,-1.52779 0.08987,-0.26961 0.143792,-0.53922 0.251636,-0.80883 0.197713,-0.64706 0.269609,-0.59314 0.503271,-1.2402 0.17974,-0.59314 0.0719,-0.98857 -0.377453,-1.20426 -0.251636,-0.12582 -0.575168,-0.17974 -0.826804,-0.30556 -0.215688,-0.0719 -0.449349,-0.0719 -0.683011,-0.0539 l -0.593142,0.10784 c -0.107843,0.018 -0.215687,0.0539 -0.269609,0.12582 l -0.17974,0.64707 c -0.125818,0.3415 -0.233662,0.68301 -0.377454,1.04249 -0.485297,1.18628 -0.539219,1.67158 -0.880725,2.85786 -0.143792,0.57517 -0.233662,1.13236 -0.377454,1.70753 -0.17974,0.64706 -0.233661,1.25818 -0.08987,1.7974 0.143792,0.44935 0.377454,0.79085 0.916674,0.88072 0.611115,0.12582 1.276152,0.0359 2.03106,-0.39543 0.413401,-0.23366 0.826803,-0.52124 1.186283,-0.8268 0.700985,-0.55719 1.348048,-0.97059 0.952621,0.46732 -0.03595,0.25164 -0.01797,0.46733 0.01797,0.70099 0.01797,0.17974 0.17974,0.25164 0.395427,0.26961 0.125818,0 0.251636,0.036 0.377454,0.0539 0.26961,0.0539 0.53922,0.018 0.862751,-0.14379 0.107844,-0.0719 0.251636,-0.12582 0.341506,-0.19771 0.341506,-0.25164 0.629089,-0.53922 0.593141,-0.88073 -0.01797,-0.17974 -0.143791,-0.26961 -0.233661,-0.37745 -0.611116,0 0.125818,-1.52779 0.233661,-2.13891 0.161766,-0.98857 0.754908,-2.03106 1.006544,-2.98368 0.05392,-0.17974 0.143791,-0.35948 0.251635,-0.53922 0.233662,-0.35948 0.413402,-0.70098 0.503272,-1.06046 l 0.35948,-1.07844 c 0.05392,-0.16177 0.413401,-0.75491 0.269609,-0.75491 -0.323531,-0.0359 -0.629089,-0.0539 -0.952621,-0.0719 -0.05392,-0.018 -0.161766,0.018 -0.26961,0.018 -0.03595,0.12582 -0.503271,0.75491 -0.539219,0.86275 -0.395428,0.75491 -0.700985,1.50981 -1.006543,2.2827 -0.08987,0.25163 -0.215688,0.50327 -0.323532,0.7549 -0.143792,0.28759 -0.772881,1.85132 -0.916673,1.99512 -0.215688,0.23366 -0.395428,0.48529 -0.62909,0.71895 z"
           style="fill:#000000;stroke-width:0.44934958"
           id="path915"
           inkscape:connector-curvature="0" />
        <path
           d="m 66.119281,151.50059 c -0.647064,-0.46732 -1.401971,-1.40197 -0.107844,-1.7255 l 0.611115,-0.12582 c 0.17974,-0.0539 0.377454,-0.0719 0.557194,-0.0899 0.629089,-0.018 1.204257,0.0719 1.779424,0.14379 0.287584,0.0359 0.575168,0.0899 0.844778,0.19772 0.07189,0.0539 0.179739,0.0539 0.287583,0 0.197714,-0.0539 0.35948,-0.14379 0.557194,-0.23366 0.125818,-0.0719 0.215688,-0.16177 0.287584,-0.28759 0.0719,-0.12581 0.179739,-0.23366 0.251635,-0.37745 0.08987,-0.14379 0.17974,-0.32353 0.197714,-0.44935 0.01797,-0.30556 0.125818,-0.61112 0.26961,-0.91667 0.03595,-0.0899 0.03595,-0.17974 0.05392,-0.26961 0,-0.0359 0,-0.0899 0.01797,-0.12582 0.05392,-0.14379 0,-0.21569 -0.08987,-0.28758 -0.233662,-0.17974 -0.53922,-0.25164 -0.862751,-0.28759 l -0.8987,-0.12582 c -0.988569,-0.0719 -2.013086,-0.0359 -3.109499,0.35948 -0.197714,0.0899 -0.413401,0.1438 -0.629089,0.23367 -0.718959,0.39542 -1.419945,0.8268 -1.94119,1.47386 -0.575168,0.70099 -0.952622,1.63563 -0.53922,2.31865 0.215688,0.4134 0.503272,0.80882 0.898699,1.11438 0.341506,0.28759 0.700986,0.53922 1.096413,0.77288 0.647064,0.37746 1.294127,0.77289 1.851321,1.22223 0.341505,0.26961 0.503271,0.62909 0.629089,1.0425 0.05392,0.10784 0,0.25163 -0.161766,0.37745 -0.215688,0.19771 -0.467323,0.34151 -0.700985,0.44935 -0.323532,0.16176 -0.665038,0.28758 -0.988569,0.43137 -0.323532,0.1438 -0.665038,0.21569 -0.988569,0.26961 -0.17974,0.036 -0.35948,0.018 -0.503272,-0.0359 -0.125818,-0.036 -0.17974,-0.12582 -0.161766,-0.25164 0.01797,-0.17974 0.01797,-0.32353 0.05392,-0.4853 0.03595,-0.26961 0.161766,-0.48529 0.341506,-0.71896 l 0.323532,-0.44935 c 0.05392,-0.0719 0.0719,-0.12581 0.05392,-0.17974 -0.01797,-0.0899 -0.01797,-0.16176 -0.01797,-0.25163 -0.03595,0 -0.08987,-0.018 -0.17974,-0.036 l 0.233661,-0.12582 c -0.143791,-0.0539 -0.215687,0.10785 -0.323531,0.14379 -0.26961,-0.0359 -0.341506,0.018 -0.485298,0.28759 -0.03595,0.0539 -0.0719,0.12582 -0.125818,0.16176 -0.287583,0.25164 -0.521245,0.53922 -0.718959,0.82681 -0.233662,0.30556 -0.395428,0.61111 -0.521246,0.91667 -0.161765,0.50327 -0.08987,0.88073 0.17974,1.16831 0.305558,0.32353 0.772882,0.46732 1.258179,0.53922 0.323532,0.0539 0.647064,0.036 1.024517,-0.0539 0.161766,-0.0539 0.287584,-0.0899 0.431376,-0.16177 0.161766,-0.0899 0.305558,-0.10784 0.467323,-0.10784 0.197714,0.018 0.413402,0 0.611116,-0.10785 0.413401,-0.16176 0.790855,-0.37745 1.132361,-0.70098 0.08987,-0.0719 0.17974,-0.17974 0.233662,-0.25164 0.143791,-0.16176 0.251635,-0.35948 0.341505,-0.53922 0.305558,-0.53922 0.377454,-1.06046 0.26961,-1.52779 -0.17974,-0.68301 -0.521245,-1.2402 -1.006543,-1.67158 -0.341506,-0.28758 -0.665037,-0.57516 -1.078439,-0.79085 -0.05392,-0.018 -0.107844,-0.0539 -0.161766,-0.0899 -0.26961,-0.21569 -0.557193,-0.43138 -0.844777,-0.61112 z"
           style="fill:#000000;stroke-width:0.44934958"
           id="path917"
           inkscape:connector-curvature="0" />
        <path
           d="m 72.122547,147.16886 c 0.197714,0.0719 0.341505,0.14379 0.377453,0.32353 0.03595,0.0899 0.143792,0.1438 0.233662,0.17974 0.125818,0.0359 0.287584,0.0359 0.431376,0.0539 0.197714,0.018 0.413401,0.0359 0.593141,0.12581 0.05392,0.036 0.143792,0.036 0.215688,0.0539 1.617659,-0.018 -0.215688,3.18139 -0.431376,3.81048 -0.395427,1.09641 -0.700985,2.2108 -0.934647,3.30721 -0.08987,0.52125 -0.161766,1.02452 -0.215688,1.54577 -0.03595,0.44935 0.08987,0.86275 0.215688,1.25818 0.03595,0.0899 0.107844,0.17974 0.17974,0.25163 0.107844,0.10785 0.305558,0.0539 0.44935,-0.0899 l 0.251635,-0.16176 c 0.215688,-0.10785 0.395428,-0.25164 0.53922,-0.46733 0.0719,-0.10784 0.161766,-0.21569 0.251636,-0.30556 0.143792,-0.16176 0.233662,-0.32353 0.26961,-0.50327 0.05392,-0.23366 0.143791,-0.46732 0.233661,-0.70098 0.05392,-0.12582 0.107844,-0.26961 0.107844,-0.39543 0,-0.19771 0.03595,-0.39543 0.08987,-0.61112 l 0.143792,-0.43137 0.26961,-0.84478 c 0.01797,-0.0719 0.05392,-0.14379 0.0719,-0.23366 0.0719,-0.28758 0.125818,-0.59314 0.251635,-0.8987 0.26961,-0.55719 0.485298,-1.11439 0.700986,-1.67158 0.05392,-0.16177 0.143792,-0.30556 0.215688,-0.44935 0.665037,-0.71896 0.593141,-2.67812 1.76145,-2.73205 0.26961,-0.0539 0.521246,-0.0539 0.790855,-0.16176 0.233662,-0.10785 0.467324,-0.19772 0.683012,-0.30556 l 0.557193,-0.32353 c 0.125818,-0.0539 0.197714,-0.16177 0.233662,-0.26961 0.08987,-0.37745 0.125818,-0.73693 0.03595,-1.07844 -0.01797,-0.0539 -0.03595,-0.10784 -0.0719,-0.16177 -0.197714,0.12582 -0.35948,0.1438 -0.539219,0.16177 -0.772882,0.0719 -1.545763,0.14379 -2.318644,0.23366 l -1.689555,0.23366 c -0.395427,0.0539 -0.808829,0.12582 -1.204257,0.25164 -0.359479,0.10784 -0.700985,0.21569 -1.042491,0.28758 -0.359479,0.0899 -0.700985,0.19772 -1.060465,0.34151 -0.215688,0.0899 -0.413401,0.19771 -0.647063,0.37745 z"
           style="fill:#000000;stroke-width:0.44934958"
           id="path919"
           inkscape:connector-curvature="0" />
        <path
           d="m 88.874249,153.26204 c -0.233662,0.23367 -0.593142,0.82681 -0.826804,1.06047 l -0.287583,0.25163 -0.395428,0.23367 c -0.107844,0.0719 -0.233662,0.12581 -0.341506,0.17974 -0.125817,0.0539 -0.251635,0.0719 -0.377453,0.0899 -0.0719,0 -0.125818,-0.0359 -0.161766,-0.0899 -0.0719,-0.1438 -0.125818,-0.30556 -0.161766,-0.44935 -0.01797,-0.12582 0,-0.25164 0.05392,-0.37746 l 0.251636,-0.50327 c 0.01797,-0.0359 0.03595,-0.0539 0.03595,-0.0899 -0.01797,-0.17974 -0.03595,-0.35948 -0.161766,-0.52124 l -0.107844,-0.10785 c -0.107844,-0.12582 -0.233662,-0.14379 -0.395428,-0.12582 l -0.377453,0.61112 c -0.08987,0.14379 -0.197714,0.26961 -0.305558,0.39543 l -0.143792,0.16176 c -0.0719,0.12582 -0.161766,0.21569 -0.26961,0.30556 -0.215687,0.16177 -0.413401,0.34151 -0.593141,0.52125 l -0.0719,0.0539 c 0,-0.0359 -0.01797,-0.0539 0,-0.0719 0.03595,-0.19771 0.107844,-0.39543 0.215688,-0.59314 0.01797,-0.0359 0.03595,-0.0719 0.0719,-0.10784 l 0.17974,-0.25164 c 0.143791,-0.19771 0.269609,-0.39543 0.431375,-0.57517 l 0.215688,-0.23366 c 0.161766,-0.23366 0.395428,-0.4134 0.593141,-0.61111 v -0.018 c 0.143792,-0.10784 0.287584,-0.21569 0.44935,-0.28758 0.161766,-0.0899 0.197714,-0.19772 0.161766,-0.35948 l -0.05392,-0.14379 c -0.0719,-0.12582 -0.197714,-0.21569 -0.305558,-0.32353 -0.01797,-0.018 -0.05392,-0.0359 -0.08987,-0.0359 -0.08987,0 -0.161766,-0.0899 -0.251636,-0.0899 0,0 -0.01797,0 -0.03595,-0.018 -0.03595,-0.0719 -0.107843,-0.0719 -0.197713,-0.0899 -0.03595,0 -0.0719,-0.018 -0.107844,-0.0359 -0.125818,-0.0359 -0.26961,-0.0359 -0.377454,-0.0899 h -0.05392 c -0.125818,0 -0.233662,0.018 -0.341506,0.0359 -0.05392,0 -0.125817,0.018 -0.161765,0.036 -0.26961,0.16177 -0.485298,0.34151 -0.683012,0.5572 -0.26961,0.32353 -0.557193,0.66503 -0.790855,1.02451 -0.01797,0.018 -0.03595,0.036 -0.03595,0.0539 -0.17974,0.19772 -0.305558,0.43138 -0.431376,0.66504 -0.125818,0.25164 -0.179739,0.52125 -0.143792,0.80883 0.05392,0.55719 0.341506,0.95262 0.862752,1.16831 0.08987,0.036 0.17974,0.0719 0.269609,0.12582 0.233662,0.12582 0.485298,0.12582 0.736934,0.0539 0.143792,-0.0539 0.287584,-0.0719 0.395427,-0.21569 0,0 0.01797,-0.018 0.03595,-0.018 l 0.197714,-0.12582 c 0.107844,-0.0899 0.233662,-0.16177 0.377454,-0.23366 0.107844,0.14379 0.26961,0.23366 0.431376,0.30556 l 0.08987,0.0539 c 0.17974,0.14379 0.395428,0.17974 0.611116,0.25163 h 0.161766 c 0.143792,-0.0359 0.287583,-0.0359 0.413401,-0.0899 0.143792,-0.0539 0.287584,-0.0539 0.44935,-0.0899 0.125818,-0.0359 0.233662,-0.0899 0.341506,-0.17974 0.107844,-0.10784 0.251635,-0.21568 0.359479,-0.3415 0.01797,-0.036 0.05392,-0.0539 0.08987,-0.0719 0.08987,-0.0539 0.161766,-0.10784 0.215688,-0.21569 0.01797,-0.0539 0.0719,-0.0899 0.107844,-0.12581 l 0.197714,-0.23367 c 0.03595,-0.018 0.05392,-0.0719 0.107844,-0.0899 0.08987,-0.0719 0.269609,-0.50327 0.287583,-0.62908 -0.08987,-0.0899 -0.179739,-0.16177 -0.305557,-0.17974 z m -2.192826,-2.9657 c 0,-0.018 0,-0.0359 -0.01797,-0.0359 -0.05392,-0.0539 -0.05392,-0.10785 -0.05392,-0.14379 0.01797,-0.0539 -0.01797,-0.10785 -0.05392,-0.1438 -0.05392,-0.0899 -0.125818,-0.21568 -0.215688,-0.30555 -0.05392,-0.0539 -0.0719,-0.12582 -0.107844,-0.19772 -0.03595,-0.0539 -0.03595,-0.12581 -0.05392,-0.19771 -0.01797,-0.12582 -0.05392,-0.23366 -0.107844,-0.35948 l -0.215688,-0.34151 c -0.125817,-0.17974 -0.413401,-0.25163 -0.593141,-0.12581 -0.03595,0.018 -0.0719,0.0539 -0.107844,0.0899 0,-0.018 -0.03595,0 -0.03595,0.018 -0.01797,0.0539 -0.08987,0.0899 -0.125818,0.14379 -0.03595,0.018 -0.03595,0.0359 -0.01797,0.0899 0.0719,0.0539 0.125818,0.12582 0.17974,0.21569 0.197714,0.23366 0.413402,0.46732 0.62909,0.66504 0.251635,0.23366 0.521245,0.44935 0.826803,0.61111 0.01797,0 0.03595,0 0.0719,0.018 z"
           style="fill:#000000;stroke-width:0.44934958"
           id="path921"
           inkscape:connector-curvature="0" />
        <path
           d="m 100.19779,148.48096 c 0.19771,-0.14379 0.43138,-0.10784 0.64706,-0.14379 0.16177,-0.018 0.32354,-0.018 0.46733,-0.0719 0.26961,-0.0899 0.50327,-0.0899 0.7549,-0.0719 0,0 0.018,0.018 0.018,0.036 -0.0359,0 -0.0899,0.018 -0.12582,0.018 0,0.0899 -0.018,0.17974 0.0899,0.17974 -0.0359,-0.0539 -0.0359,-0.10784 0.0539,-0.12582 l 0.34151,-0.0539 -0.39543,0.17974 c 0.19771,0.0359 0.35948,-0.0539 0.52125,-0.17974 0.0719,-0.0539 0.16176,-0.10784 0.28758,-0.0899 0.17974,0.0359 0.21569,0 0.25164,-0.19771 h -0.16177 l 0.35948,-0.21569 c -0.0359,-0.10784 -0.0539,-0.12582 0.018,-0.23366 0.0719,-0.12582 0.0899,-0.25164 0.018,-0.35948 -0.0539,-0.0719 -0.0719,-0.19771 -0.19772,-0.21569 -0.0359,0 -0.0539,-0.036 -0.0719,-0.0719 l -0.10785,-0.12582 c -0.0359,-0.036 -0.26961,0.0359 -0.28758,0.0899 0.0359,0.036 0.0539,0.0719 0.0719,0.10784 -0.0899,0.12582 -0.19772,0.16177 -0.32354,0.16177 -0.30555,0 -0.59314,0.018 -0.89869,0.036 -0.23367,0.018 -0.46733,0.018 -0.70099,0.018 -0.0719,0 -0.14379,-0.036 -0.21569,-0.0539 -0.12582,0.018 -0.26961,0.0719 -0.35948,0.0719 -0.305555,0.018 -0.629087,0.0719 -0.916671,0 -0.125818,-0.0359 -0.287584,0 -0.431376,0 l -1.797398,0.0899 c -0.03595,0 -0.107844,-0.018 -0.125818,-0.036 -0.01797,-0.0359 0.01797,-0.0899 0.03595,-0.16176 -0.125818,0.0719 -0.161766,0 -0.215688,-0.036 -0.0719,-0.0539 -0.161766,-0.0899 -0.269609,-0.018 v 0.12582 c 0,0.17973 -0.03595,0.21568 -0.233662,0.21568 -0.233662,0 -0.44935,-0.018 -0.665038,-0.036 -0.08987,0 -0.197713,-0.0359 -0.341505,-0.0719 0.08987,-0.0359 0.125818,-0.0719 0.161766,-0.0719 l 0.539219,-0.0359 c 0.08987,0 0.197714,0 0.287584,-0.018 0.01797,-0.0539 0.01797,-0.0899 0.01797,-0.10784 l -1.150335,-0.0719 c -0.17974,0 -0.305558,-0.036 -0.395428,-0.16176 0,-0.018 -0.01797,-0.018 -0.03595,-0.018 -0.08987,0.018 -0.17974,0.0539 -0.17974,0.16177 -0.03595,0.26961 -0.161765,0.55719 -0.0719,0.80883 0.01797,0.0359 0.01797,0.0719 0,0.0899 -0.03595,0.14379 0.03595,0.25163 0.08987,0.3415 l 0.08987,0.17974 c 0.05392,0.10785 0.107844,0.21569 0.17974,0.30556 0.05392,0.0719 0.125818,0.17974 0.215688,0.19771 1.006543,0.34151 0.521245,0.73694 0,1.97714 -0.01797,0.0539 -0.05392,0.10785 -0.107844,0.16177 -0.107844,0.16176 -0.215688,0.16176 -0.323532,0.0359 -0.197713,0.0359 -0.377453,0.0539 -0.575167,0.0719 -0.287584,0.036 -0.305558,0.036 -0.395428,-0.19771 -0.01797,-0.0719 -0.0719,-0.12582 -0.107844,-0.19772 l -0.08987,0.0719 c -0.01797,0.0539 -0.05392,0.10784 -0.08987,0.16177 -0.143791,0.30555 -0.179739,0.30555 -0.395427,0.10784 h -0.03595 c -0.01797,0.036 -0.0719,0.0899 -0.08987,0.14379 -0.0719,0.26961 -0.08987,0.53922 0,0.79086 0.01797,0.0719 0.05392,0.12581 0,0.21568 -0.01797,0.0539 -0.01797,0.12582 0.05392,0.12582 0.08987,0.018 0.107844,0.0719 0.143792,0.12582 0.01797,0.0539 0.107844,0.0539 0.143792,0.0899 0.03595,0.018 0.03595,0.0539 0.03595,0.0719 0.05392,0.16176 0.08987,0.32353 0.125817,0.48529 0.05392,0.44935 -0.251635,1.94119 -0.323531,2.40852 -0.01797,0.14379 -0.05392,0.26961 -0.08987,0.39543 -0.01797,0.0899 -0.0719,0.16176 -0.08987,0.25163 l -0.161766,0.77288 c -0.03595,0.12582 -0.05392,0.23366 -0.107844,0.34151 -0.125818,0.25163 -0.08987,0.46732 0.107844,0.61111 0.0719,0.0539 0.17974,0.0899 0.26961,0.12582 l 0.341506,0.14379 0.323531,0.12582 c 0.161766,0.018 0.287584,0.0359 0.467324,-0.018 0.17974,-0.0539 0.359479,-0.0899 0.557193,-0.12582 0.01797,-0.0539 0.03595,-0.10784 0.03595,-0.16177 0.0719,-0.3415 0.143792,-0.68301 0.233662,-1.02451 0.03595,-0.17974 0.107844,-0.37746 0.17974,-0.5572 0.233662,-0.52124 0.772881,-2.08498 1.006543,-2.60622 0.611115,-1.47387 0.323532,-1.29413 1.779424,-1.83335 l 0.62909,-0.21569 0.143792,-0.036 c 0.233661,-0.0539 0.485297,-0.0719 0.700985,-0.16176 0.341506,-0.12582 0.665039,-0.21569 1.006539,-0.28759 0.0719,-0.0359 0.14379,-0.0359 0.19772,-0.12581 0.0539,-0.0719 0.14379,-0.12582 0.21568,-0.17974 0.17974,-0.10785 0.41341,-0.17974 0.46733,-0.41341 0,-0.018 0.018,-0.0359 0.036,-0.0539 0.0899,-0.036 0.0719,-0.10784 0.0719,-0.17974 -0.3415,-0.10784 -1.29413,-0.14379 -1.707525,-0.018 h 0.826805 c -0.44935,0.0719 -0.880727,0.0359 -1.330077,0.12582 -0.03595,0 -0.05392,-0.036 -0.125818,-0.0539 l 0.413402,-0.0539 c -0.341506,0 -0.700985,0.0539 -1.042491,0.10785 -1.006543,0.14379 -1.168309,-0.21569 -0.970595,-0.64707 0.467323,-1.00654 0.03595,-0.84477 1.58171,-1.02451 0.161766,-0.018 0.341506,-0.0359 0.521246,-0.0359 0.01797,0 0.05392,0.018 0.08987,0 0.26961,-0.036 0.557193,-0.036 0.844773,-0.19772 z m -0.485297,0.10785 v -0.0359 l 0.08987,-0.036 c 0,0.018 0.01797,0.018 0.01797,0.036 z m 0.467327,-0.10785 c -0.0359,0.0539 -0.0899,0.0899 -0.16177,0.0359 0.0359,0 0.0899,-0.018 0.16177,-0.0359 z"
           style="fill:#000000;stroke-width:0.44934958"
           id="path923"
           inkscape:connector-curvature="0" />
        <path
           d="m 108.16026,151.48262 c 0,-0.12582 0,-0.25164 0.018,-0.37745 0.0539,-0.30556 0.0719,-0.61112 0.17974,-0.8987 0.12582,-0.37746 0.21569,-0.75491 0.21569,-1.15034 0,-0.0719 0.018,-0.14379 0.018,-0.19771 0.0899,-0.52125 0.16176,-1.02452 0.23366,-1.54577 0.0719,-0.39542 0.10784,-0.79085 0.018,-1.18628 -0.018,-0.0899 -0.0539,-0.19771 -0.10784,-0.28758 -0.12582,-0.16177 -0.26961,-0.30556 -0.4134,-0.44935 -0.0719,-0.0719 -0.16177,-0.10785 -0.25164,-0.12582 l -0.80883,-0.19771 c -0.19771,-0.0539 -0.25164,-0.036 -0.35948,0.16176 -0.28758,0.59314 -0.55719,1.22223 -0.71896,1.8693 -0.0719,0.37745 -0.14379,0.7549 -0.17974,1.15033 -0.018,0.32353 -0.12582,0.61112 -0.32353,0.8987 l -1.384,2.17485 c -0.39542,0.59314 -0.73693,1.24021 -1.22223,1.77943 -0.0359,0.036 -0.0539,0.0899 -0.0899,0.14379 l -0.57516,0.66504 c -0.0359,0.0359 -0.12582,0.0539 -0.16177,0.0359 -0.17974,-0.0719 -0.35948,-0.14379 -0.52125,-0.23366 -0.10784,-0.0719 -0.21568,-0.12581 -0.3415,-0.0719 -0.0359,0.12582 0,0.21568 0.0899,0.30555 l 0.35948,0.26961 0.16176,0.1438 c -0.23366,0.30555 0.0539,0.018 -0.19771,0.26961 l -0.4853,0.50327 c -0.30556,0.35948 -0.61111,0.73693 -0.8987,1.11438 0.32353,0.44935 -0.0719,1.02452 0.84478,0.88073 0.37745,0.12582 -0.14379,-0.23366 0.26961,-0.26961 0.10784,-0.018 0.16177,-0.0539 0.23366,-0.12582 0.30556,-0.50327 0.70099,-0.97059 1.00654,-1.50981 0.1438,-0.23366 0.35948,-0.52125 0.66504,-0.62909 0.30556,-0.0719 0.62909,-0.16177 0.91668,-0.25164 0.37745,-0.14379 0.7549,-0.25163 1.07843,-0.50327 0.0539,-0.0359 0.12582,-0.0539 0.19772,-0.0899 l 0.0539,0.28758 c 0.0539,0.79086 0.10784,1.56374 0.34151,2.31865 l 0.10784,0.43137 c 0,0.0539 0,0.16177 -0.018,0.16177 -0.10785,0.0539 -0.0719,0.14379 -0.0719,0.21569 0.10784,0.44935 0.26961,0.88072 0.52125,1.27615 0.0719,0.10784 0.17974,0.17974 0.28758,0.26961 0.0719,0.0539 0.17974,0.10784 0.30556,0.0719 0,-0.21569 0.17974,-0.1438 0.32353,-0.16177 0,-0.036 0,-0.0719 0.018,-0.0899 l 0.0539,-0.0719 0.16177,0.16177 c 0.018,-0.16177 0.0359,-0.30556 0.0359,-0.44935 0,-0.19771 -0.018,-0.39543 -0.018,-0.59314 -0.018,-0.28758 -0.0359,-0.55719 -0.0899,-0.84478 -0.0539,-0.35948 -0.0899,-0.71896 0,-1.07844 0.018,-0.12581 0.0359,-0.23366 0.0359,-0.35948 0.018,-0.46732 0.018,-0.95262 0.018,-1.40197 0.0359,-0.036 0.0539,-0.0539 0.0719,-0.0539 0,-0.018 0.018,-0.018 0.0359,-0.0359 0.12582,-0.0719 0.16177,-0.28758 0.0539,-0.30555 -0.0359,0.0359 -0.0539,0.0899 -0.12582,0.16176 0,-0.12582 0,-0.21569 0.0899,-0.25163 0.1438,-0.0539 0.1438,-0.16177 0.16177,-0.28759 0,-0.16176 0.0359,-0.3415 0.0359,-0.50327 0,-0.10784 0.0539,-0.17974 0.14379,-0.23366 0.4853,-0.28759 0.93465,-0.61112 1.43792,-0.86275 0.0899,-0.036 0.19771,-0.0719 0.23366,-0.17974 -0.12582,-0.0539 -0.21569,-0.12582 -0.32353,-0.16177 -0.0719,-0.036 -0.16177,-0.0539 -0.23366,-0.036 -0.25164,0.018 -0.4853,0.0899 -0.71896,0.21569 l -0.35948,0.16177 z m -3.41506,0.46732 c 0.62909,-1.15033 1.09642,-2.2108 0.95262,-0.26961 -0.018,0.28759 -0.0359,0.59314 -0.0359,0.88073 -0.018,0.12582 -0.0539,0.19771 -0.17974,0.25163 -1.34805,0.88073 -1.7974,0.52125 -0.73694,-0.86275 z"
           style="fill:#000000;stroke-width:0.44934958"
           id="path925"
           inkscape:connector-curvature="0" />
        <path
           d="m 112.09655,148.21135 c 0.018,-0.018 -0.43137,0.23367 -0.43137,0.23367 0.0359,0.018 -0.018,0.39542 0.018,0.39542 0.86275,0.25164 1.29413,-0.16176 0.9706,1.04249 -0.0899,0.34151 -0.0539,0.25164 -0.1438,0.61112 -0.0539,0.17974 -0.0359,0.35948 -0.0719,0.53922 -0.0359,0.16177 -0.018,0.30556 -0.0899,0.46732 -0.12582,0.25164 -0.16177,0.46733 -0.23366,0.71896 -0.0719,0.30556 -0.1438,0.62909 -0.37746,0.9706 -0.0539,0.0539 -0.0719,0.12582 -0.10784,0.16176 -0.16177,0.41341 -0.25164,0.75491 -0.32353,1.13236 -0.0899,0.28759 -0.17974,0.59315 -0.28759,0.8987 l -0.10784,0.1438 c -0.10784,0.0719 -0.19771,0.12581 -0.30556,0.16176 -0.23366,0.0719 -0.44935,0.12582 -0.68301,0.21569 -0.23366,0.0899 -0.4853,0.19771 -0.71896,0.32353 -0.0539,0.018 -0.12582,0.0899 -0.16176,0.16177 l -0.30556,0.44935 c -0.17974,0.32353 -0.17974,0.46732 0.0719,0.57516 0.0899,0.0539 0.16177,0.0899 0.28759,0.0899 0.39542,-0.0359 0.77288,-0.0359 1.13236,-0.0899 0.44935,-0.0539 0.93465,-0.14379 1.40197,-0.21568 l 1.15033,-0.16177 c 0.23367,-0.0359 0.39543,-0.018 0.4853,0.0899 0.0539,0.0899 0.17974,0.0359 0.32353,-0.018 0.10785,-0.0539 0.16177,-0.10785 0.12582,-0.19772 -0.0359,-0.12582 0.018,-0.26961 0.16177,-0.44935 0.0359,-0.0539 0.0539,-0.16176 0.0899,-0.23366 0.0539,-0.17974 0.16176,-0.39543 0.10784,-0.55719 -0.018,-0.0359 0.018,-0.12582 0.0539,-0.19772 -0.17974,0.036 -0.12582,-0.10784 -0.12582,-0.23366 -0.17973,-0.018 -0.4134,-0.0539 -0.64706,-0.036 -1.00654,0.19772 -0.35948,-1.02451 -0.14379,-1.61765 l 0.39543,-1.20426 c 0.0719,-0.23366 0.0899,-0.44935 0.14379,-0.66504 l 0.50327,-1.99511 c 0.10784,-0.39543 0.14379,-0.4134 0.23366,-0.79086 0.23366,-0.57516 1.11439,-0.48529 1.65361,-0.68301 0.0359,-0.12582 0.12582,-0.4853 0.0359,-0.52124 -0.0899,-0.0539 -0.0899,-0.17974 -0.0719,-0.28759 0.0719,-0.37745 -0.10784,-0.59314 -0.43137,-0.66503 -0.25164,-0.0899 -0.59315,-0.0719 -0.93465,0.018 -0.5572,0.14379 -1.07844,0.26961 -1.61766,0.44935 -0.26961,0.0719 -0.55719,0.0719 -0.86275,0.32353 -0.018,0.12582 -0.0899,0.25164 -0.25164,0.35948 -0.0359,0.036 -0.0539,0.0899 -0.10784,0.12582 -0.0719,0.12582 0.30556,0.018 0.19771,0.16176 z m -2.51636,9.05889 c 0.0899,-0.12582 0.19772,-0.14379 0.28759,-0.16176 0.35948,-0.0359 0.79085,-0.10785 1.20426,-0.1438 0.16176,-0.0359 0.30555,-0.0539 0.48529,-0.14379 0.0539,-0.0359 0.0899,-0.0359 0.14379,-0.0539 0.23367,-0.0359 0.44935,-0.0539 0.66504,-0.10784 0.10785,-0.018 0.19772,-0.0539 0.26961,0.0539 l -0.4853,0.0539 c 0.0719,0.036 0.17974,0 0.26961,0 0.10785,-0.018 0.21569,-0.0359 0.30556,-0.018 0.0899,0 0.17974,0.018 0.30556,0.018 -0.19771,0.14379 -0.26961,0.10784 -0.43138,0.16177 -0.14379,0.018 -0.26961,0 -0.4134,0.0539 -0.17974,0.0899 -0.35948,0.10784 -0.52124,0.16176 -0.17974,0.036 -0.37746,0.0539 -0.5572,0.0719 l -0.95262,0.10784 c -0.17974,0 -0.3415,-0.018 -0.52124,-0.018 z m 5.12259,-9.04091 c -0.12582,0.018 -0.14379,-0.036 -0.0899,-0.12582 0.26961,-0.17974 0.37745,-0.0539 0.59314,-0.018 z m -2.22877,0.28758 c 0.018,-0.018 0.018,-0.018 0.018,-0.0359 0.0359,-0.018 0.0719,-0.018 0.10784,-0.018 0.0359,-0.018 0.0539,-0.018 0.0899,-0.018 v 0.0359 z"
           style="fill:#000000;stroke-width:0.44934958"
           id="path927"
           inkscape:connector-curvature="0" />
        <path
           d="m 120.72403,154.55617 c 0,0 0.018,0 0.018,-0.018 0.0899,0.16176 0.19772,0.32353 0.21569,0.50327 0.018,0.12582 0.0719,0.25163 0.10785,0.37745 0.14379,0.21569 0.23366,0.44935 0.32353,0.68301 0.10784,0.16177 0.21569,0.26961 0.14379,0.50327 -0.018,0.0539 0.018,0.0539 0.018,0.0719 0.0539,0.10784 0.10785,0.19771 0.17974,0.26961 0.10785,0.16177 0.21569,0.34151 0.30556,0.52125 0.0539,0.0899 0.0719,0.17974 0.12582,0.26961 l 0.43138,0.55719 c 0.0899,0.10784 0.19771,0.0899 0.37745,-0.0539 l 0.32353,-0.32353 c 0.16177,-0.1438 0.17974,-0.19772 0.12582,-0.32354 -0.0539,-0.32353 -0.0899,-0.64706 -0.12582,-0.97059 -0.018,-0.018 0,-0.018 0,-0.0359 0.018,-0.16177 0.0719,-0.34151 -0.0539,-0.44935 0,-0.018 0.018,-0.0719 0.0359,-0.10784 0.018,-0.34151 0.0539,-0.68301 0.0899,-1.02452 0,-0.0899 0,-0.19771 -0.018,-0.28758 0,-0.16177 -0.0539,-0.26961 -0.0899,-0.41341 -0.018,-0.16176 -0.0719,-0.30555 -0.0899,-0.44935 -0.0539,-0.14379 -0.0899,-0.28758 -0.12582,-0.43137 -0.0359,-0.16177 -0.0719,-0.32353 -0.0899,-0.4853 -0.0899,-0.70098 -0.2696,-0.68301 0.37746,-1.06046 0.68301,-0.46733 1.25818,-1.00655 1.81537,-1.58171 0.25164,-0.30556 0.4853,-0.59315 0.64706,-0.8987 0.34151,-0.62909 0.52125,-1.22223 0.4853,-1.77943 -0.0359,-0.46732 -0.16176,-0.8987 -0.4134,-1.20425 -0.30556,-0.32354 -0.73693,-0.50328 -1.25818,-0.53922 -0.21569,-0.036 -0.46732,-0.0539 -0.70098,-0.0719 -0.52125,-0.0719 -1.16831,-0.0539 -1.76145,0 -0.84478,0.10784 -1.70753,0.19771 -2.57028,0.43138 l -1.29413,0.32353 c -0.12582,0.0539 -0.28758,0.10784 -0.35948,0.23366 l -0.4134,0.61111 c -0.0539,0.0539 -0.0539,0.0899 -0.0719,0.1438 -0.0719,0.16176 -0.16176,0.30555 -0.21569,0.46732 -0.0899,0.30556 -0.0539,0.59314 -0.0539,0.86275 0.018,0.0539 0.0359,0.10785 0.0719,0.16177 0.0359,0.0719 0.0719,0.16176 0.12582,0.21569 0.0899,0.16176 0.28758,0.21568 0.55719,0.10784 0.53922,-0.28758 1.384,-0.23366 0.79085,0.61111 -0.46732,0.95263 -0.86275,1.88727 -1.20425,2.83989 l -0.21569,0.53922 c -0.0719,0.10785 -0.12582,0.16177 -0.25164,0.19772 l -0.48529,0.16176 c -0.0719,0.036 -0.1438,0.0539 -0.19772,0.0719 0.018,0.0539 0.0719,0.0719 0.10785,0.0899 0.018,0.0359 0.0899,0.0539 0.0899,0.0899 0,0.12582 0.0539,0.14379 0.14379,0.16176 0.23366,0.036 0.23366,0.036 0.12582,0.28759 0,0.0359 -0.0359,0.10784 -0.0539,0.14379 -0.17974,0.4134 -0.3415,0.84478 -0.48529,1.25818 -0.0719,0.14379 -0.0899,0.26961 -0.0719,0.39543 0.018,0.0539 0,0.12581 -0.0359,0.19771 -0.10784,0.35948 -0.21568,0.68301 -0.3415,1.02452 -0.0899,0.25163 -0.14379,0.46732 -0.12582,0.68301 -0.018,0.0719 -0.018,0.14379 -0.0539,0.21569 -0.0719,0.19771 -0.0359,0.26961 0.12582,0.26961 0.0719,0 0.12581,-0.018 0.17974,0 0.0899,0 0.16176,0 0.25163,-0.12582 0.018,-0.018 0.10784,-0.036 0.12582,-0.0539 0.0899,0 0.21569,-0.0719 0.30556,-0.12582 0.23366,-0.0899 0.43137,-0.14379 0.61111,-0.30556 0.018,0 0.018,0 0.0359,-0.018 l 0.4853,-0.16177 c 0.25163,-0.0899 0.3415,-0.17974 0.43137,-0.43137 0.0899,-0.21569 0.1438,-0.41341 0.23367,-0.62909 0.17973,-0.43138 0.3415,-0.86275 0.53921,-1.3121 0.16177,-0.32354 0.30556,-0.66504 0.39543,-0.9706 0.10785,-0.26961 0.17974,-0.52125 0.28759,-0.77288 0.018,-0.0899 0.0719,-0.14379 0.17974,-0.19771 0.28758,-0.16177 0.39542,-0.12582 0.46732,0.0719 0.10784,0.32353 0.19771,0.64706 0.28758,0.9706 0.018,0.10784 0.0719,0.21568 0.14379,0.26961 0.018,0 0.018,-0.018 0.0359,-0.018 -0.018,-0.0899 -0.018,-0.16176 -0.0539,-0.23366 z m 2.31864,-3.54087 c -1.04249,0.53922 -2.98368,2.44446 -3.10949,0.46732 0.018,-0.17974 -0.018,-0.35948 -0.0899,-0.50327 -0.0539,-0.0719 -0.0899,-0.17974 -0.10785,-0.26961 l -0.0539,-0.37746 c 0,-1.13236 0.0359,-1.15033 1.90524,-1.67158 0.53922,-0.0539 1.06047,-0.10784 1.54576,-0.0719 0.16177,0.018 0.32354,0 0.4853,0 0.39543,-0.018 0.68301,0.10784 0.95262,0.26961 0.23367,0.12582 0.19772,0.39543 -0.0719,0.70098 -0.34151,0.4134 -0.70099,0.86275 -1.11439,1.20426 z"
           style="fill:#000000;stroke-width:0.44934958"
           id="path929"
           inkscape:connector-curvature="0" />
        <path
           d="m 127.96752,150.97935 c 1.07844,0.35948 -0.9706,1.18628 -1.43792,1.59968 -0.50327,0.4134 -0.86275,0.95262 -1.07844,1.59969 -0.25163,0.73693 -0.23366,1.45589 0.16177,2.12093 0.0359,0.0719 0.10784,0.16176 0.14379,0.28758 0.26961,0.39543 0.64706,0.68301 1.09641,0.84478 0.35948,0.12582 0.75491,0.16176 1.15034,0.12582 0.0899,-0.0359 0.17974,-0.0539 0.26961,-0.018 0.0899,0.0539 0.19771,-0.0539 0.28758,-0.036 0.23366,-0.0359 0.44935,-0.0359 0.68301,-0.0719 0.21569,0 0.43138,-0.0539 0.68301,-0.0899 0.19772,-0.018 0.37746,-0.036 0.57517,-0.0899 0.34151,-0.0899 0.71896,-0.28759 1.04249,-0.46733 0.21569,-0.10784 0.37746,-0.26961 0.53922,-0.44935 0.0719,-0.0539 0.14379,-0.0899 0.23366,-0.10784 -0.0539,-0.25163 -0.16176,-0.44935 -0.28758,-0.61111 -0.0719,-0.1438 -0.10784,-0.1438 -0.25164,-0.0359 -0.26961,0.16176 -0.59314,0.26961 -0.89869,0.32353 l -1.07844,0.10784 c -0.50328,0.0899 -1.04249,0.12582 -1.54577,0.19772 -0.39542,0.018 -0.77288,0.018 -1.16831,-0.0359 -0.19771,-0.036 -0.39542,-0.0899 -0.55719,-0.23366 -0.16176,-0.14379 -0.17974,-0.59314 -0.12582,-0.77288 0.4134,-1.27616 2.92976,-2.96571 3.90036,-3.41506 0.14379,-0.0719 0.28758,-0.16177 0.39543,-0.28758 0.12581,-0.16177 0.25163,-0.28759 0.43137,-0.37746 v -0.0359 c -0.036,-0.14379 -0.0899,-0.19771 -0.19771,-0.23366 -0.23366,-0.0539 -0.46733,-0.0719 -0.68301,-0.018 -0.43138,0.0539 -0.86276,0.0359 -1.27616,-0.018 -2.80394,-0.16176 2.10296,-1.7255 2.31865,-1.25818 0.21568,0 0.43137,0.018 0.66503,0.0719 0.34151,0.0719 0.64707,-0.0539 0.91668,-0.3415 0.16176,-0.16177 0.23366,-0.35948 0.19771,-0.59315 -0.0359,-0.12581 -0.0719,-0.21568 -0.0899,-0.32353 l -0.16176,-0.68301 c -0.0539,-0.25164 -0.16177,-0.46732 -0.35948,-0.57517 -0.19772,-0.0719 -0.41341,-0.14379 -0.62909,-0.16176 -0.84478,-0.0899 -1.68956,0.018 -2.51636,0.26961 -0.52125,0.17974 -0.98857,0.43137 -1.41995,0.8268 -0.3415,0.28758 -0.53922,0.66504 -0.64706,1.11439 -0.12582,0.53922 0.0359,1.00654 0.30556,1.43792 0.12582,0.16176 0.25163,0.30555 0.4134,0.4134 z"
           style="fill:#000000;stroke-width:0.44934958"
           id="path931"
           inkscape:connector-curvature="0" />
      </g>
    </g>
  </g>
</svg>
