<?xml version="1.0" encoding="UTF-8" standalone="no"?>
<svg
   xmlns:osb="http://www.openswatchbook.org/uri/2009/osb"
   xmlns:dc="http://purl.org/dc/elements/1.1/"
   xmlns:cc="http://creativecommons.org/ns#"
   xmlns:rdf="http://www.w3.org/1999/02/22-rdf-syntax-ns#"
   xmlns:svg="http://www.w3.org/2000/svg"
   xmlns="http://www.w3.org/2000/svg"
   xmlns:xlink="http://www.w3.org/1999/xlink"
   xmlns:sodipodi="http://sodipodi.sourceforge.net/DTD/sodipodi-0.dtd"
   xmlns:inkscape="http://www.inkscape.org/namespaces/inkscape"
   width="2800"
   height="850"
   viewBox="0 0 740.83331 224.89583"
   version="1.1"
   id="svg8"
   inkscape:version="1.0.1 (3bc2e813f5, 2020-09-07)"
   sodipodi:docname="Patron-Logo2.svg"
   inkscape:export-filename="G:\OpenPixl\COMMUNICATION\Logo OpenPixl\Patron-Logo2.png"
   inkscape:export-xdpi="96"
   inkscape:export-ydpi="96"
   style="enable-background:new"
   enable-background="new">
  <defs
     id="defs2">
    <linearGradient
       id="linearGradient6195"
       osb:paint="solid">
      <stop
         style="stop-color:#999999;stop-opacity:1;"
         offset="0"
         id="stop6193" />
    </linearGradient>
    <linearGradient
       inkscape:collect="always"
       xlink:href="#linearGradient6195"
       id="linearGradient6197"
       x1="43.787006"
       y1="153.78195"
       x2="62.57457"
       y2="153.78195"
       gradientUnits="userSpaceOnUse"
       gradientTransform="matrix(0.99470952,0,0,1,0.33034763,0)" />
    <filter
       inkscape:collect="always"
       style="color-interpolation-filters:sRGB"
       id="filter2078"
       x="-0.026062492"
       width="1.052125"
       y="-0.022240005"
       height="1.04448">
      <feGaussianBlur
         inkscape:collect="always"
         stdDeviation="1.4220476"
         id="feGaussianBlur2080" />
    </filter>
    <filter
       inkscape:collect="always"
       style="color-interpolation-filters:sRGB"
       id="filter2090"
       x="-0.031240584"
       width="1.0624812"
       y="-0.019484179"
       height="1.0389684">
      <feGaussianBlur
         inkscape:collect="always"
         stdDeviation="1.4606369"
         id="feGaussianBlur2092" />
    </filter>
    <filter
       inkscape:collect="always"
       style="color-interpolation-filters:sRGB"
       id="filter2129">
      <feBlend
         inkscape:collect="always"
         mode="darken"
         in2="BackgroundImage"
         id="feBlend2131" />
    </filter>
  </defs>
  <sodipodi:namedview
     id="base"
     pagecolor="#ffffff"
     bordercolor="#666666"
     borderopacity="1.0"
     inkscape:pageopacity="0.0"
     inkscape:pageshadow="2"
     inkscape:zoom="0.32"
     inkscape:cx="1497.2391"
     inkscape:cy="959.77563"
     inkscape:document-units="px"
     inkscape:current-layer="g899"
     showgrid="true"
     inkscape:window-width="1920"
     inkscape:window-height="1017"
     inkscape:window-x="-8"
     inkscape:window-y="-8"
     inkscape:window-maximized="1"
     inkscape:measure-start="112,918"
     inkscape:measure-end="112,828"
     units="px"
     inkscape:snap-path-clip="true"
     fit-margin-top="0"
     fit-margin-left="0"
     fit-margin-right="0"
     fit-margin-bottom="0"
     inkscape:document-rotation="0" />
  <metadata
     id="metadata5">
    <rdf:RDF>
      <cc:Work
         rdf:about="">
        <dc:format>image/svg+xml</dc:format>
        <dc:type
           rdf:resource="http://purl.org/dc/dcmitype/StillImage" />
        <dc:title />
      </cc:Work>
    </rdf:RDF>
  </metadata>
  <g
     inkscape:label="Fonds"
     inkscape:groupmode="layer"
     id="layer1"
     style="display:inline"
     transform="translate(-6.352296,-88.394499)" />
  <g
     inkscape:groupmode="layer"
     id="layer6"
     inkscape:label="Fonds 1"
     style="display:inline"
     transform="translate(-6.352296,-3.0611739)" />
  <g
     inkscape:groupmode="layer"
     id="layer2"
     inkscape:label="OP"
     style="display:inline"
     transform="translate(-6.352296,-88.394499)">
    <g
       inkscape:groupmode="layer"
       id="layer13"
       inkscape:label="P 2"
       transform="translate(0,85.333325)"
       style="display:none">
      <path
         style="display:inline;opacity:0.6;fill:#3ea867;fill-opacity:1;stroke:#3ea867;stroke-width:0.27689603;stroke-opacity:1;filter:url(#filter2090)"
         d="m 659.87101,26.458334 a 58.208333,58.208333 0 0 0 -58.20833,58.20833 V 206.37499 h 15.875 V 124.5128 a 58.208333,58.208333 0 0 0 42.33333,18.36219 58.208333,58.208333 0 0 0 52.04592,-32.18512 l -14.22548,-7.11326 a 42.333333,42.333333 0 0 1 -37.82044,23.42338 42.333333,42.333333 0 0 1 -42.33333,-42.333326 42.333333,42.333333 0 0 1 42.33333,-42.33334 42.333333,42.333333 0 0 1 39.28856,26.61802 l 14.71383,-5.88595 a 58.208333,58.208333 0 0 0 -54.00239,-36.60706 z"
         id="rect4622-3"
         inkscape:connector-curvature="0" />
    </g>
    <g
       inkscape:groupmode="layer"
       id="layer9"
       inkscape:label="P 1"
       style="display:none">
      <path
         style="display:inline;opacity:0.25;fill:#3ea867;fill-opacity:1;stroke:#3ea867;stroke-width:0.27689603;stroke-opacity:1"
         d="m 713.8734,148.39872 -14.71383,5.88595 a 42.333333,42.333333 0 0 1 3.04477,15.71532 42.333333,42.333333 0 0 1 -4.51289,18.90996 l 14.22548,7.11326 a 58.208333,58.208333 0 0 0 6.16241,-26.02322 58.208333,58.208333 0 0 0 -4.20594,-21.60127 z"
         id="path895"
         inkscape:connector-curvature="0" />
    </g>
    <g
       inkscape:groupmode="layer"
       id="layer8"
       inkscape:label="O 1"
       style="display:none">
      <path
         style="display:inline;opacity:0.48800001;fill:#54b9d1;fill-opacity:1;stroke:#54b9d1;stroke-width:0.26458332;stroke-opacity:1"
         d="m 606.31905,115.10778 a 76.729163,76.729163 0 0 0 -22.50715,54.22201 76.729163,76.729163 0 0 0 22.50715,54.22197 l 11.21844,-11.21844 a 60.854163,60.854163 0 0 1 -17.85059,-43.00353 60.854163,60.854163 0 0 1 17.85059,-43.00358 z"
         id="path4757-2"
         inkscape:connector-curvature="0" />
    </g>
    <g
       inkscape:groupmode="layer"
       id="layer3"
       inkscape:label="P"
       style="display:inline" />
    <g
       inkscape:groupmode="layer"
       id="layer12"
       inkscape:label="O 2"
       transform="translate(0,85.333325)"
       style="display:none;opacity:0.6">
      <path
         style="display:inline;fill:#54b9d1;fill-opacity:1;stroke:#54b9d1;stroke-width:0.26458332;stroke-opacity:1;filter:url(#filter2078)"
         d="M 659.87102,7.9374999 A 76.729164,76.729164 0 0 0 605.649,30.444654 L 616.86744,41.66309 A 60.854164,60.854164 0 0 1 659.87102,23.8125 60.854164,60.854164 0 0 1 720.72518,84.666666 60.854164,60.854164 0 0 1 659.87102,145.52083 60.854164,60.854164 0 0 1 616.86744,127.67024 L 605.649,138.88868 a 76.729164,76.729164 0 0 0 54.22202,22.50715 76.729164,76.729164 0 0 0 76.72916,-76.729164 76.729164,76.729164 0 0 0 -76.72916,-76.7291661 z"
         id="path4757-6"
         inkscape:connector-curvature="0" />
    </g>
    <g
       inkscape:groupmode="layer"
       id="layer7"
       inkscape:label="O"
       style="display:inline" />
  </g>
  <g
     inkscape:groupmode="layer"
     id="layer5"
     inkscape:label="Pixel"
     style="display:inline;filter:url(#filter2129);opacity:0.85"
     transform="translate(-6.352296,-88.394499)" />
  <g
     inkscape:groupmode="layer"
     id="layer4"
     inkscape:label="Open"
     style="display:inline"
     transform="translate(-6.352296,-88.394499)">
    <g
       id="g899"
       transform="translate(1.5875,-2.1166667)">
      <path
         sodipodi:nodetypes="cscccccccscccc"
         inkscape:connector-curvature="0"
         id="rect4622"
         d="m 659.87101,111.79166 c -32.14756,0 -58.20833,26.06076 -58.20833,58.20833 v 142.875 l 15.875,-21.16667 v -81.86218 c 10.97883,11.69143 26.29514,18.33491 42.33333,18.36218 22.04337,-0.008 42.19099,-12.46736 52.04592,-32.18511 l -14.22548,-7.11326 c -7.15772,14.33638 -21.79656,23.40267 -37.82044,23.42337 -23.38006,0 -42.33333,-18.95328 -42.33333,-42.33333 0,-23.38005 18.95327,-42.33333 42.33333,-42.33333 17.30582,0.008 32.86416,10.54884 39.28856,26.61801 l 14.71383,-5.88595 c -8.82862,-22.09141 -30.21217,-36.58687 -54.00239,-36.60706 z"
         style="display:inline;fill:#5fb980;fill-opacity:1;stroke:#5fb980;stroke-width:0.27689603;stroke-opacity:1;enable-background:new" />
      <path
         inkscape:connector-curvature="0"
         id="path4757"
         d="M 659.87101,93.270825 A 76.729163,76.729163 0 0 0 605.649,115.77798 l 11.21844,11.21844 a 60.854163,60.854163 0 0 1 43.00357,-17.8506 60.854163,60.854163 0 0 1 60.85417,60.85417 60.854163,60.854163 0 0 1 -60.85417,60.85417 60.854163,60.854163 0 0 1 -43.00357,-17.85059 L 605.649,224.222 a 76.729163,76.729163 0 0 0 54.22201,22.50716 76.729163,76.729163 0 0 0 76.72917,-76.72917 76.729163,76.729163 0 0 0 -76.72917,-76.729165 z"
         style="display:inline;fill:#53a2b3;fill-opacity:1;stroke:#53a2b3;stroke-width:0.26458332;stroke-opacity:1;enable-background:new" />
      <g
         style="display:inline;opacity:1;filter:url(#filter2129);enable-background:new"
         id="g1139"
         transform="matrix(3.3717727,0,0,3.3717727,829.80805,-163.44181)">
        <g
           id="text995"
           style="font-style:normal;font-weight:normal;font-size:10.58333302px;line-height:1.25;font-family:sans-serif;letter-spacing:0px;word-spacing:0px;fill:#000000;fill-opacity:1;stroke:none;stroke-width:0.26458332"
           aria-label="l">
          <path
             id="path2100"
             style="font-style:normal;font-variant:normal;font-weight:300;font-stretch:normal;font-size:50.79999924px;font-family:'Open Sans';-inkscape-font-specification:'Open Sans Light';stroke-width:0.26458332;fill:#1a1a1a"
             d="M -71.043616,120.90638 H -73.49928 V 82.310287 h 2.455664 z"
             inkscape:connector-curvature="0" />
        </g>
        <g
           id="text995-1"
           style="font-style:normal;font-weight:normal;font-size:10.58333302px;line-height:1.25;font-family:sans-serif;letter-spacing:0px;word-spacing:0px;fill:#000000;fill-opacity:1;stroke:none;stroke-width:0.26458332"
           aria-label="P">
          <path
             id="path2118"
             style="font-style:normal;font-variant:normal;font-weight:300;font-stretch:normal;font-size:50.79999924px;font-family:'Open Sans';-inkscape-font-specification:'Open Sans Light';stroke-width:0.26458332;fill:#1a1a1a;fill-opacity:1"
             d="m -104.14018,95.059896 q 0,5.258594 -3.57187,8.061524 -3.57188,2.80293 -10.12032,2.80293 h -5.60586 v 14.98203 h -2.53007 V 84.641927 h 8.88007 q 12.94805,0 12.94805,10.417969 z m -19.29805,8.681644 h 4.98575 q 6.12675,0 8.85527,-2.00918 2.72851,-2.033988 2.72851,-6.573246 0,-4.191992 -2.57968,-6.201171 -2.57969,-2.033985 -7.98711,-2.033985 h -6.00274 z"
             inkscape:connector-curvature="0" />
        </g>
        <g
           id="text995-1-8"
           style="font-style:normal;font-weight:normal;font-size:10.58333302px;line-height:1.25;font-family:sans-serif;letter-spacing:0px;word-spacing:0px;fill:#1a1a1a;fill-opacity:1;stroke:none;stroke-width:0.26458332"
           aria-label="i">
          <path
             id="path2115"
             style="font-style:normal;font-variant:normal;font-weight:300;font-stretch:normal;font-size:50.79999924px;font-family:'Open Sans';-inkscape-font-specification:'Open Sans Light';stroke-width:0.26458332;fill:#1a1a1a"
             d="m -99.59027,120.90638 h -2.45566 V 93.943685 h 2.45566 z m -2.80293,-34.453711 q 0,-2.38125 1.5627,-2.38125 0.76894,0 1.190621,0.620117 0.446484,0.620118 0.446484,1.761133 0,1.116211 -0.446484,1.761133 -0.421681,0.644922 -1.190621,0.644922 -1.5627,0 -1.5627,-2.406055 z"
             inkscape:connector-curvature="0" />
        </g>
        <g
           id="text995-1-8-3"
           style="font-style:normal;font-weight:normal;font-size:10.58333302px;line-height:1.25;font-family:sans-serif;letter-spacing:0px;word-spacing:0px;fill:#000000;fill-opacity:1;stroke:none;stroke-width:0.26458332"
           aria-label="x">
          <path
             id="path2112"
             style="font-style:normal;font-variant:normal;font-weight:300;font-stretch:normal;font-size:50.79999924px;font-family:'Open Sans';-inkscape-font-specification:'Open Sans Light';stroke-width:0.26458332;fill:#1a1a1a"
             d="m -88.045473,107.04056 -9.400976,-13.096875 h 2.827734 l 8.036719,11.360545 7.962304,-11.360545 h 2.703711 l -9.252148,13.096875 9.921875,13.86582 h -2.852539 l -8.483203,-12.03027 -8.532813,12.03027 h -2.703711 z"
             inkscape:connector-curvature="0" />
        </g>
        <path
           inkscape:connector-curvature="0"
           id="path993"
           d="M -97.806881,120.86376 -78.624612,94.008579"
           style="fill:none;stroke:#ffff00;stroke-width:0.08525453;stroke-linecap:butt;stroke-linejoin:miter;stroke-miterlimit:4;stroke-dasharray:none;stroke-opacity:0" />
      </g>
      <g
         transform="matrix(3.3717728,0,0,3.3717728,497.07331,-349.09815)"
         id="g1168">
        <g
           id="g1129"
           transform="translate(99.397523,58.165266)">
          <g
             id="text991"
             style="font-style:normal;font-weight:normal;font-size:10.58333302px;line-height:1.25;font-family:sans-serif;letter-spacing:0px;word-spacing:0px;display:inline;fill:#000000;fill-opacity:1;stroke:none;stroke-width:0.26458332"
             aria-label="p">
            <path
               sodipodi:nodetypes="cccccccscscsccscscscscs"
               inkscape:connector-curvature="0"
               id="path2097"
               style="font-size:50.79999924px;stroke-width:0.26458332;fill:#1a1a1a"
               d="m -202.11529,112.88721 v 14.73398 l -4.68443,5.83326 0.0956,-44.181302 h 4.58886 v 4.216797 c 0.95912,-1.653646 2.16628,-2.877344 3.62149,-3.671094 1.47175,-0.810287 3.22461,-1.21543 5.25859,-1.21543 3.37344,0 6.11022,1.339453 8.21035,4.01836 2.11667,2.678906 3.175,6.201172 3.175,10.566799 0,4.36562 -1.05833,7.88788 -3.175,10.56679 -2.10013,2.67891 -4.83691,4.01836 -8.21035,4.01836 -2.03398,0 -3.78684,-0.39687 -5.25859,-1.19062 -1.45521,-0.81029 -2.66237,-2.04225 -3.62149,-3.6959 z m 15.52774,-9.69863 c 0,-3.356903 -0.69453,-5.9862 -2.0836,-7.887893 -1.37253,-1.918229 -3.26595,-2.877344 -5.68027,-2.877344 -2.41432,0 -4.31601,0.959115 -5.70508,2.877344 -1.37253,1.901693 -2.05879,4.53099 -2.05879,7.887893 0,3.3569 0.68626,5.99446 2.05879,7.91269 1.38907,1.90169 3.29076,2.85254 5.70508,2.85254 2.41432,0 4.30774,-0.95085 5.68027,-2.85254 1.38907,-1.91823 2.0836,-4.55579 2.0836,-7.91269 z" />
          </g>
          <g
             id="text991-2"
             style="font-style:normal;font-weight:normal;font-size:10.58333302px;line-height:1.25;font-family:sans-serif;letter-spacing:0px;word-spacing:0px;display:inline;fill:#000000;fill-opacity:1;stroke:none;stroke-width:0.26458332"
             aria-label="e">
            <path
               id="path2109"
               style="font-size:50.79999924px;stroke-width:0.26458332;fill:#1a1a1a"
               d="m -154.40018,102.02276 v 2.23242 h -20.98477 q 0.29766,4.71289 2.82774,7.19336 2.55488,2.45566 7.09414,2.45566 2.62929,0 5.08496,-0.64492 2.48047,-0.64492 4.91132,-1.93477 v 4.31602 q -2.45566,1.0418 -5.03535,1.5875 -2.57968,0.5457 -5.23379,0.5457 -6.64765,0 -10.54199,-3.86953 -3.86953,-3.86953 -3.86953,-10.46758 0,-6.821285 3.67109,-10.814839 3.6959,-4.01836 9.94668,-4.01836 5.60586,0 8.85528,3.621485 3.27422,3.596679 3.27422,9.797854 z m -4.56407,-1.33946 q -0.0496,-3.745504 -2.10839,-5.977926 -2.03399,-2.232421 -5.40743,-2.232421 -3.81992,0 -6.12675,2.158007 -2.28204,2.158008 -2.6293,6.07715 z"
               inkscape:connector-curvature="0" />
          </g>
          <g
             id="text991-7"
             style="font-style:normal;font-weight:normal;font-size:10.58333302px;line-height:1.25;font-family:sans-serif;letter-spacing:0px;word-spacing:0px;display:inline;fill:#000000;fill-opacity:1;stroke:none;stroke-width:0.26458332"
             aria-label="n">
            <path
               id="path2106"
               style="font-size:50.79999924px;stroke-width:0.26458332;fill:#1a1a1a"
               d="m -129.43098,101.00576 v 16.76797 h -4.56406 v -16.61914 q 0,-3.943948 -1.53789,-5.903518 -1.53789,-1.959571 -4.61367,-1.959571 -3.6959,0 -5.82911,2.356445 -2.1332,2.356446 -2.1332,6.424414 v 15.70137 h -4.58887 V 89.992478 h 4.58887 v 4.316015 q 1.63711,-2.505273 3.84473,-3.745507 2.23242,-1.240235 5.13457,-1.240235 4.7873,0 7.24297,2.976563 2.45566,2.951758 2.45566,8.706446 z"
               inkscape:connector-curvature="0" />
          </g>
          <g
             id="text991-4"
             style="font-style:normal;font-weight:normal;font-size:10.58333302px;line-height:1.25;font-family:sans-serif;letter-spacing:0px;word-spacing:0px;display:inline;fill:#000000;fill-opacity:1;stroke:none;stroke-width:0.26458332"
             aria-label="O">
            <path
               id="path2103"
               style="font-size:50.79999924px;stroke-width:0.26458332;fill:#1a1a1a"
               d="m -225.5218,83.419242 q -5.45703,0 -8.68164,4.067969 -3.19981,4.067968 -3.19981,11.087695 0,6.994924 3.19981,11.062894 3.22461,4.06796 8.68164,4.06796 5.45703,0 8.63203,-4.06796 3.1998,-4.06797 3.1998,-11.062894 0,-7.019727 -3.1998,-11.087695 -3.175,-4.067969 -8.63203,-4.067969 z m 0,-4.067969 q 7.78867,0 12.45195,5.233789 4.66328,5.208984 4.66328,13.989844 0,8.756054 -4.66328,13.989844 -4.66328,5.20898 -12.45195,5.20898 -7.81348,0 -12.50156,-5.20898 -4.66329,-5.20899 -4.66329,-13.989844 0,-8.78086 4.66329,-13.989844 4.68808,-5.233789 12.50156,-5.233789 z"
               inkscape:connector-curvature="0" />
          </g>
        </g>
      </g>
    </g>
  </g>
</svg>
